<svg xmlns="http://www.w3.org/2000/svg" viewBox="0 0 76.092 72.287">
  <defs>
    <style>
      .cls-1 {
        fill: #ba9454;
      }
    </style>
  </defs>
  <g id="Group_761" data-name="Group 761" transform="translate(-334 -5960.719)">
    <g id="Group_540" data-name="Group 540" transform="translate(334 6006.373)">
      <g id="Group_539" data-name="Group 539">
        <g id="Group_538" data-name="Group 538">
          <path id="Path_293" data-name="Path 293" class="cls-1" d="M119.858,290.916h25.364a3.8,3.8,0,0,0,0-7.609H119.858a3.8,3.8,0,1,0,0,7.609Zm0-5.073h25.364a1.268,1.268,0,0,1,0,2.536H119.858a1.268,1.268,0,0,1,0-2.536Z" transform="translate(-94.494 -278.234)"/>
          <path id="Path_294" data-name="Path 294" class="cls-1" d="M74.823,256H1.268A1.267,1.267,0,0,0,0,257.268v24.1a1.268,1.268,0,0,0,1.268,1.268H74.823a1.268,1.268,0,0,0,1.268-1.268v-24.1A1.268,1.268,0,0,0,74.823,256Zm-1.268,24.1H2.536V258.536H73.555V280.1Z" transform="translate(0 -256)"/>
        </g>
      </g>
    </g>
    <g id="Group_542" data-name="Group 542" transform="translate(340.341 5968.328)">
      <g id="Group_541" data-name="Group 541" transform="translate(0 0)">
        <path id="Path_295" data-name="Path 295" class="cls-1" d="M46.815,67.283V52.468A1.268,1.268,0,0,0,45.547,51.2H40.474a1.268,1.268,0,0,0-1.268,1.268V67.283A8.89,8.89,0,0,0,34.133,75.3V90.514A1.268,1.268,0,0,0,35.4,91.782H50.619a1.268,1.268,0,0,0,1.268-1.268V75.3A8.89,8.89,0,0,0,46.815,67.283Zm2.536,21.963H36.669V75.3A6.35,6.35,0,0,1,40.9,69.324a1.268,1.268,0,0,0,.845-1.2V53.736h2.536V68.128a1.267,1.267,0,0,0,.845,1.2A6.351,6.351,0,0,1,49.351,75.3v13.95Z" transform="translate(-34.133 -51.2)"/>
      </g>
    </g>
    <g id="Group_544" data-name="Group 544" transform="translate(345.414 5960.719)">
      <g id="Group_543" data-name="Group 543" transform="translate(0 0)">
        <path id="Path_296" data-name="Path 296" class="cls-1" d="M67.781,10.24H62.708a1.268,1.268,0,0,0-1.268,1.268v7.609a1.268,1.268,0,0,0,1.268,1.268h5.073a1.268,1.268,0,0,0,1.268-1.268V11.508A1.268,1.268,0,0,0,67.781,10.24Zm-1.268,7.609H63.976V12.776h2.536v5.073Z" transform="translate(-61.44 -10.24)"/>
      </g>
    </g>
    <g id="Group_546" data-name="Group 546" transform="translate(345.414 5992.423)">
      <g id="Group_545" data-name="Group 545">
        <path id="Path_297" data-name="Path 297" class="cls-1" d="M67.781,180.907H62.708a1.268,1.268,0,0,0-1.268,1.268v13.95a1.268,1.268,0,0,0,1.268,1.268h5.073a1.268,1.268,0,0,0,1.268-1.268v-13.95A1.268,1.268,0,0,0,67.781,180.907Zm-1.268,13.95H63.976V183.443h2.536v11.414Z" transform="translate(-61.44 -180.907)"/>
      </g>
    </g>
    <g id="Group_548" data-name="Group 548" transform="translate(363.168 5968.328)">
      <g id="Group_547" data-name="Group 547" transform="translate(0 0)">
        <path id="Path_298" data-name="Path 298" class="cls-1" d="M169.694,67.283V52.468a1.268,1.268,0,0,0-1.268-1.268h-5.073a1.268,1.268,0,0,0-1.268,1.268V67.283a8.89,8.89,0,0,0-5.073,8.013V90.514a1.268,1.268,0,0,0,1.268,1.268H173.5a1.268,1.268,0,0,0,1.268-1.268V75.3A8.89,8.89,0,0,0,169.694,67.283Zm2.536,21.963H159.549V75.3a6.35,6.35,0,0,1,4.228-5.972,1.268,1.268,0,0,0,.845-1.2V53.736h2.536V68.128a1.267,1.267,0,0,0,.845,1.2A6.351,6.351,0,0,1,172.23,75.3Z" transform="translate(-157.012 -51.2)"/>
      </g>
    </g>
    <g id="Group_550" data-name="Group 550" transform="translate(368.241 5960.719)">
      <g id="Group_549" data-name="Group 549" transform="translate(0 0)">
        <path id="Path_299" data-name="Path 299" class="cls-1" d="M190.66,10.24h-5.073a1.268,1.268,0,0,0-1.268,1.268v7.609a1.268,1.268,0,0,0,1.268,1.268h5.073a1.268,1.268,0,0,0,1.268-1.268V11.508A1.267,1.267,0,0,0,190.66,10.24Zm-1.268,7.609h-2.536V12.776h2.536Z" transform="translate(-184.319 -10.24)"/>
      </g>
    </g>
    <g id="Group_552" data-name="Group 552" transform="translate(368.241 5992.423)">
      <g id="Group_551" data-name="Group 551">
        <path id="Path_300" data-name="Path 300" class="cls-1" d="M190.66,180.907h-5.073a1.268,1.268,0,0,0-1.268,1.268v13.95a1.268,1.268,0,0,0,1.268,1.268h5.073a1.268,1.268,0,0,0,1.268-1.268v-13.95A1.267,1.267,0,0,0,190.66,180.907Zm-1.268,13.95h-2.536V183.443h2.536Z" transform="translate(-184.319 -180.907)"/>
      </g>
    </g>
    <g id="Group_554" data-name="Group 554" transform="translate(385.995 5968.328)">
      <g id="Group_553" data-name="Group 553" transform="translate(0 0)">
        <path id="Path_301" data-name="Path 301" class="cls-1" d="M292.574,67.283V52.468a1.268,1.268,0,0,0-1.268-1.268h-5.073a1.268,1.268,0,0,0-1.268,1.268V67.283a8.89,8.89,0,0,0-5.073,8.013V90.514a1.268,1.268,0,0,0,1.268,1.268h15.218a1.268,1.268,0,0,0,1.268-1.268V75.3A8.889,8.889,0,0,0,292.574,67.283Zm2.536,21.963H282.428V75.3a6.35,6.35,0,0,1,4.228-5.972,1.268,1.268,0,0,0,.845-1.2V53.736h2.536V68.128a1.267,1.267,0,0,0,.845,1.2A6.351,6.351,0,0,1,295.11,75.3Z" transform="translate(-279.892 -51.2)"/>
      </g>
    </g>
    <g id="Group_556" data-name="Group 556" transform="translate(391.068 5960.719)">
      <g id="Group_555" data-name="Group 555" transform="translate(0 0)">
        <path id="Path_302" data-name="Path 302" class="cls-1" d="M313.54,10.24h-5.073a1.268,1.268,0,0,0-1.268,1.268v7.609a1.268,1.268,0,0,0,1.268,1.268h5.073a1.268,1.268,0,0,0,1.268-1.268V11.508A1.267,1.267,0,0,0,313.54,10.24Zm-1.268,7.609h-2.536V12.776h2.536Z" transform="translate(-307.199 -10.24)"/>
      </g>
    </g>
    <g id="Group_558" data-name="Group 558" transform="translate(391.068 5992.423)">
      <g id="Group_557" data-name="Group 557">
        <path id="Path_303" data-name="Path 303" class="cls-1" d="M313.54,180.907h-5.073a1.268,1.268,0,0,0-1.268,1.268v13.95a1.268,1.268,0,0,0,1.268,1.268h5.073a1.268,1.268,0,0,0,1.268-1.268v-13.95A1.267,1.267,0,0,0,313.54,180.907Zm-1.268,13.95h-2.536V183.443h2.536Z" transform="translate(-307.199 -180.907)"/>
      </g>
    </g>
    <g id="Group_560" data-name="Group 560" transform="translate(363.168 6011.446)">
      <g id="Group_559" data-name="Group 559">
        <path id="Path_304" data-name="Path 304" class="cls-1" d="M173.5,283.307H158.281a1.268,1.268,0,0,0-1.268,1.268v5.073a1.268,1.268,0,0,0,1.268,1.268H173.5a1.268,1.268,0,0,0,1.268-1.268v-5.073A1.268,1.268,0,0,0,173.5,283.307Zm-1.268,5.073H159.549v-2.536h12.682Z" transform="translate(-157.013 -283.307)"/>
      </g>
    </g>
    <g id="Group_562" data-name="Group 562" transform="translate(368.241 6011.446)">
      <g id="Group_561" data-name="Group 561">
        <path id="Path_305" data-name="Path 305" class="cls-1" d="M190.66,283.307h-5.073a1.268,1.268,0,0,0-1.268,1.268v5.073a1.268,1.268,0,0,0,1.268,1.268h5.073a1.268,1.268,0,0,0,1.268-1.268v-5.073A1.267,1.267,0,0,0,190.66,283.307Zm-1.268,5.073h-2.536v-2.536h2.536Z" transform="translate(-184.319 -283.307)"/>
      </g>
    </g>
  </g>
</svg>
