<svg xmlns="http://www.w3.org/2000/svg" viewBox="0 0 69.999 63">
  <defs>
    <style>
      .cls-1 {
        fill: #ba9454;
      }
    </style>
  </defs>
  <g id="Group_763" data-name="Group 763" transform="translate(-339.999 -6262)">
    <g id="Group_621" data-name="Group 621" transform="translate(339.999 6262)">
      <g id="Group_620" data-name="Group 620" transform="translate(0 0)">
        <path id="Path_313" data-name="Path 313" class="cls-1" d="M278.805,53.725a1.163,1.163,0,0,0,.825-.342l3.3-3.3a1.167,1.167,0,0,0-1.651-1.65l-3.3,3.3a1.167,1.167,0,0,0,.825,1.991Z" transform="translate(-239.681 -45.016)"/>
        <path id="Path_314" data-name="Path 314" class="cls-1" d="M196.8,53.388a1.166,1.166,0,1,0,1.65-1.65l-3.3-3.3a1.166,1.166,0,1,0-1.65,1.65Z" transform="translate(-166.753 -45.021)"/>
        <path id="Path_315" data-name="Path 315" class="cls-1" d="M302.948,125.166a1.165,1.165,0,0,0-1.429-.825l-5.248,1.406-4.931-18.407a12.728,12.728,0,0,0,6.68-5.622c1.708-2.959,1.958-6.761.742-11.3l-4.27-15.936a1.167,1.167,0,0,0-1.429-.825l-22.312,5.979a1.167,1.167,0,0,0-.825,1.429l2.99,11.154a1.166,1.166,0,0,0,2.253-.6l-2.687-10.029,20.058-5.375,3.968,14.809c1.05,3.92.879,7.127-.509,9.53a10.514,10.514,0,0,1-14.343,3.843c-2.168-1.251-3.806-3.562-4.877-6.878l16.375-4.389a1.167,1.167,0,0,0-.6-2.254l-17.53,4.7A1.167,1.167,0,0,0,274.2,97c1.217,4.541,3.335,7.708,6.294,9.415a12.349,12.349,0,0,0,8.591,1.511l4.937,18.425-5.248,1.406a1.167,1.167,0,0,0,.3,2.295,1.182,1.182,0,0,0,.3-.041l12.749-3.416A1.166,1.166,0,0,0,302.948,125.166Z" transform="translate(-232.989 -67.05)"/>
        <path id="Path_316" data-name="Path 316" class="cls-1" d="M32.238,79.635,9.926,73.656A1.168,1.168,0,0,0,8.5,74.48L5.508,85.636a1.167,1.167,0,0,0,2.254.6l2.687-10.028,20.059,5.375L26.539,96.4c-1.051,3.92-2.8,6.611-5.207,8A10.51,10.51,0,0,1,6.99,100.551c-1.252-2.169-1.514-4.989-.783-8.4l16.376,4.388a1.166,1.166,0,1,0,.6-2.253l-17.53-4.7a1.168,1.168,0,0,0-1.429.825c-1.217,4.539-.967,8.34.742,11.3a12.73,12.73,0,0,0,6.68,5.623l-4.931,18.4L1.47,124.34a1.167,1.167,0,1,0-.6,2.254l12.749,3.416a1.185,1.185,0,0,0,.3.041,1.167,1.167,0,0,0,.3-2.295l-5.248-1.406,4.936-18.424a12.371,12.371,0,0,0,8.591-1.511c2.959-1.709,5.077-4.877,6.294-9.416l4.27-15.938A1.166,1.166,0,0,0,32.238,79.635Z" transform="translate(-0.001 -67.051)"/>
        <path id="Path_317" data-name="Path 317" class="cls-1" d="M248.637,25.6a1.167,1.167,0,0,0-1.167,1.167v4.667a1.167,1.167,0,1,0,2.333,0V26.765A1.167,1.167,0,0,0,248.637,25.6Z" transform="translate(-213.637 -25.598)"/>
      </g>
    </g>
  </g>
</svg>
